<svg width="19" height="22" viewBox="0 0 19 22" fill="none" xmlns="http://www.w3.org/2000/svg">
<path fill-rule="evenodd" clip-rule="evenodd" d="M9.88547 5.17109C9.80208 5.18213 9.71723 5.17556 9.63668 5.15182C9.55613 5.12809 9.48177 5.08774 9.41863 5.03352C9.3555 4.9793 9.30508 4.91248 9.27079 4.83759C9.23651 4.7627 9.21916 4.6815 9.21992 4.5995C9.26349 3.54864 9.65978 2.54075 10.348 1.73056C11.0723 0.891867 12.0458 0.292752 13.1342 0.0157931C13.2202 -0.00452171 13.3098 -0.00524791 13.3961 0.0136708C13.4824 0.0325896 13.563 0.0706437 13.6318 0.124876C13.7005 0.179108 13.7555 0.248058 13.7925 0.326366C13.8294 0.404674 13.8474 0.490232 13.8449 0.57639C13.7835 1.63027 13.3896 2.63995 12.7168 3.46731C12.0249 4.36028 11.0147 4.96817 9.88547 5.17109ZM15.9994 11.5685C15.9994 8.57864 18.2555 7.90812 18.2555 7.25959C18.2555 6.61106 16.304 5.1601 14.2397 5.1601C12.1754 5.1601 11.3745 6.10542 9.97571 6.10542C8.57694 6.10542 7.43763 5.1601 5.70045 5.1601C4.7438 5.2115 3.81496 5.49222 2.99636 5.97735C2.17775 6.46248 1.4947 7.13701 1.00782 7.9411C0.306694 9.12131 -0.0410997 10.4693 0.00386887 11.8323C0.00386887 16.6578 3.55718 22 6.17423 22C7.64067 22 8.01293 21.0657 10.0321 21.0657C12.0513 21.0657 12.4123 22 13.7885 22C16.6311 22 19 16.504 19 16.427C18.999 16.32 18.9666 16.2156 18.9066 16.126C18.8466 16.0364 18.7616 15.9654 18.6616 15.9214C17.8514 15.5028 17.1748 14.8756 16.7053 14.108C16.2359 13.3404 15.9917 12.462 15.9994 11.5685Z" fill="white"/>
</svg>
