<svg width="20" height="16" viewBox="0 0 20 16" fill="none" xmlns="http://www.w3.org/2000/svg">
<path d="M18 0H2C1.46957 0 0.960859 0.210714 0.585786 0.585786C0.210714 0.960859 0 1.46957 0 2V14C0 14.5304 0.210714 15.0391 0.585786 15.4142C0.960859 15.7893 1.46957 16 2 16H18C18.5304 16 19.0391 15.7893 19.4142 15.4142C19.7893 15.0391 20 14.5304 20 14V2C20 1.46957 19.7893 0.960859 19.4142 0.585786C19.0391 0.210714 18.5304 0 18 0ZM18 7L11.65 11.45C11.1662 11.7882 10.5902 11.9695 10 11.9695C9.40976 11.9695 8.83377 11.7882 8.35 11.45L2 7V4.9L9.35 10.05C9.54087 10.1825 9.76766 10.2535 10 10.2535C10.2323 10.2535 10.4591 10.1825 10.65 10.05L18 4.9V7Z" fill="white"/>
</svg>
