<svg width="18" height="18" viewBox="0 0 18 18" fill="none" xmlns="http://www.w3.org/2000/svg">
<path d="M9.18133 0.000606479C11.4619 -0.0258486 13.6649 0.814101 15.3247 2.34188L12.7034 4.91134C11.7554 4.02509 10.4903 3.54228 9.18133 3.56213C6.78606 3.56213 4.75176 5.14612 4.02643 7.27907C3.64183 8.3968 3.64183 9.60712 4.02643 10.7248C4.7585 12.8545 6.78943 14.4385 9.18471 14.4385C10.4228 14.4385 11.4855 14.1276 12.3087 13.5787L12.3052 13.5801C13.209 12.9923 13.8452 12.0919 14.0934 11.0657L14.1406 10.8439H9.18133V7.37827H17.8414C17.9494 7.98013 18 8.59521 18 9.20698C18 11.9451 17.0014 14.2599 15.264 15.8274L15.2654 15.8247C13.812 17.1432 11.8381 17.9296 9.50211 17.9955L9.18133 18C5.70987 18 2.53528 16.082 0.976666 13.043L0.842125 12.7688C-0.323894 10.2866 -0.279047 7.41312 0.976666 4.96094L1.11026 4.71003C2.71188 1.81353 5.8063 0.000606479 9.18133 0.000606479Z" fill="white"/>
</svg>
