<svg width="18" height="20" viewBox="0 0 18 20" fill="none" xmlns="http://www.w3.org/2000/svg">
<path d="M1.5 16H16.5C16.6326 16 16.7598 15.9473 16.8536 15.8536C16.9473 15.7598 17 15.6326 17 15.5V13.5C17 13.3674 16.9473 13.2402 16.8536 13.1465C16.7598 13.0527 16.6326 13 16.5 13H15V6.00001H16.5C16.6326 6.00001 16.7598 5.94733 16.8536 5.85356C16.9473 5.75979 17 5.63262 17 5.50001V3.67001C16.999 3.47258 16.9396 3.27987 16.8293 3.11614C16.7189 2.95242 16.5626 2.82503 16.38 2.75001L10 0.150007C9.75264 0.0483613 9.48741 -0.00264435 9.22 6.73153e-06H8.78C8.51931 -1.84376e-06 8.26114 0.0509538 8.02 0.150007L1.62 2.75001C1.43738 2.82503 1.28105 2.95242 1.17072 3.11614C1.06039 3.27987 1.00099 3.47258 1 3.67001V5.50001C1 5.63262 1.05268 5.75979 1.14645 5.85356C1.24021 5.94733 1.36739 6.00001 1.5 6.00001H3V13H1.5C1.36739 13 1.24021 13.0527 1.14645 13.1465C1.05268 13.2402 1 13.3674 1 13.5V15.5C1 15.6326 1.05268 15.7598 1.14645 15.8536C1.24021 15.9473 1.36739 16 1.5 16ZM10 6.00001H13V13H10V6.00001ZM5 6.00001H8V13H5V6.00001ZM17.5 18H0.5C0.367392 18 0.240215 18.0527 0.146447 18.1465C0.0526785 18.2402 0 18.3674 0 18.5V19.5C0 19.6326 0.0526785 19.7598 0.146447 19.8536C0.240215 19.9473 0.367392 20 0.5 20H17.5C17.6326 20 17.7598 19.9473 17.8536 19.8536C17.9473 19.7598 18 19.6326 18 19.5V18.5C18 18.3674 17.9473 18.2402 17.8536 18.1465C17.7598 18.0527 17.6326 18 17.5 18Z" fill="#989DA8"/>
</svg>
