<svg width="20" height="16" viewBox="0 0 20 16" fill="none" xmlns="http://www.w3.org/2000/svg">
<path d="M20 2C20 1.46957 19.7893 0.960859 19.4142 0.585786C19.0391 0.210714 18.5304 0 18 0H2C1.46957 0 0.960859 0.210714 0.585786 0.585786C0.210714 0.960859 0 1.46957 0 2V14C0 14.5304 0.210714 15.0391 0.585786 15.4142C0.960859 15.7893 1.46957 16 2 16H18C18.5304 16 19.0391 15.7893 19.4142 15.4142C19.7893 15.0391 20 14.5304 20 14V2ZM8 12.5C8 12.6326 7.94732 12.7598 7.85355 12.8536C7.75979 12.9473 7.63261 13 7.5 13H4.5C4.36739 13 4.24021 12.9473 4.14645 12.8536C4.05268 12.7598 4 12.6326 4 12.5V11.5C4 11.3674 4.05268 11.2402 4.14645 11.1464C4.24021 11.0527 4.36739 11 4.5 11H7.5C7.63261 11 7.75979 11.0527 7.85355 11.1464C7.94732 11.2402 8 11.3674 8 11.5V12.5ZM18 7.5C18 7.63261 17.9473 7.75979 17.8536 7.85355C17.7598 7.94732 17.6326 8 17.5 8H2.5C2.36739 8 2.24021 7.94732 2.14645 7.85355C2.05268 7.75979 2 7.63261 2 7.5V5.5C2 5.36739 2.05268 5.24021 2.14645 5.14645C2.24021 5.05268 2.36739 5 2.5 5H17.5C17.6326 5 17.7598 5.05268 17.8536 5.14645C17.9473 5.24021 18 5.36739 18 5.5V7.5Z" fill="white"/>
</svg>
