<svg width="18" height="20" viewBox="0 0 18 20" fill="none" xmlns="http://www.w3.org/2000/svg">
<path d="M17 8.05001L16.86 8.94001C16.635 10.3583 15.9089 11.6488 14.8135 12.5773C13.718 13.5058 12.3259 14.0106 10.89 14H9.74998C9.57192 14.0001 9.39971 14.0635 9.26413 14.1789C9.12856 14.2944 9.03847 14.4542 9.00998 14.63L8.25998 19.37C8.22932 19.5466 8.13724 19.7067 8 19.8219C7.86277 19.9372 7.68921 20.0003 7.50998 20H5.69998C5.62731 20.0012 5.55527 19.9863 5.48908 19.9563C5.4229 19.9262 5.36423 19.8818 5.31732 19.8263C5.27042 19.7708 5.23645 19.7055 5.21789 19.6352C5.19932 19.565 5.19662 19.4915 5.20998 19.42L6.33998 12.26C6.3896 12.1131 6.48356 11.9851 6.60892 11.8938C6.73429 11.8024 6.88489 11.7522 7.03998 11.75H8.73998C10.5359 11.7488 12.2756 11.1238 13.6618 9.98202C15.0481 8.84021 15.9947 7.25242 16.34 5.49001C16.6129 5.85237 16.8117 6.265 16.9249 6.70428C17.0382 7.14356 17.0637 7.60086 17 8.05001ZM8.73998 10C10.1691 10.001 11.5516 9.49185 12.6387 8.56423C13.7258 7.63662 14.4461 6.35144 14.67 4.94001L14.81 4.05001C14.8816 3.55362 14.8458 3.04763 14.7048 2.56631C14.5638 2.08499 14.3211 1.63959 13.993 1.26027C13.6649 0.880954 13.2591 0.576583 12.8031 0.367774C12.3471 0.158966 11.8515 0.0505973 11.35 0.0500096H4.34998C4.11029 0.0469247 3.87746 0.130042 3.69392 0.284222C3.51037 0.438402 3.38831 0.653385 3.34998 0.89001L0.999978 15.42C0.986416 15.4923 0.989304 15.5667 1.00843 15.6377C1.02755 15.7088 1.06242 15.7746 1.11045 15.8303C1.15847 15.886 1.21843 15.9302 1.28586 15.9596C1.35329 15.9889 1.42647 16.0028 1.49998 16H3.30998C3.48859 16.002 3.66189 15.9393 3.79789 15.8235C3.9339 15.7077 4.02344 15.5466 4.04998 15.37L4.80998 10.63C4.83652 10.4534 4.92605 10.2923 5.06206 10.1765C5.19807 10.0607 5.37137 9.99803 5.54998 10H8.73998Z" fill="white"/>
</svg>
