<svg width="24" height="28" viewBox="0 0 24 28" fill="none" xmlns="http://www.w3.org/2000/svg">
<path d="M24 15.2727V20.3636C24 21.0387 23.719 21.6862 23.219 22.1635C22.7189 22.6409 22.0406 22.9091 21.3333 22.9091V24.1818C21.3333 25.1945 20.9119 26.1656 20.1618 26.8817C19.4116 27.5977 18.3942 28 17.3333 28H13.3333C12.9797 28 12.6406 27.8659 12.3905 27.6272C12.1405 27.3885 12 27.0648 12 26.7273V26.0909C12 25.9221 12.0702 25.7603 12.1953 25.6409C12.3203 25.5216 12.4899 25.4545 12.6667 25.4545H17.3333C17.687 25.4545 18.0261 25.3205 18.2761 25.0818C18.5262 24.8431 18.6667 24.5194 18.6667 24.1818V22.9091C18.313 22.9091 17.9739 22.775 17.7239 22.5363C17.4738 22.2976 17.3333 21.9739 17.3333 21.6364V14C17.3333 13.6625 17.4738 13.3387 17.7239 13.1C17.9739 12.8614 18.313 12.7273 18.6667 12.7273V8.90909C18.6667 7.22135 17.9643 5.60273 16.714 4.40932C15.4638 3.21591 13.7681 2.54545 12 2.54545C10.2319 2.54545 8.5362 3.21591 7.28595 4.40932C6.03571 5.60273 5.33333 7.22135 5.33333 8.90909V12.7273C5.68696 12.7273 6.02609 12.8614 6.27614 13.1C6.52619 13.3387 6.66667 13.6625 6.66667 14V21.6364C6.66667 21.9739 6.52619 22.2976 6.27614 22.5363C6.02609 22.775 5.68696 22.9091 5.33333 22.9091H2.66667C1.95942 22.9091 1.28115 22.6409 0.781048 22.1635C0.280951 21.6862 0 21.0387 0 20.3636V15.2727C0 14.5976 0.280951 13.9502 0.781048 13.4728C1.28115 12.9955 1.95942 12.7273 2.66667 12.7273V8.90909C2.66667 6.54625 3.65 4.28019 5.40034 2.60941C7.15068 0.938634 9.52465 0 12 0C14.4754 0 16.8493 0.938634 18.5997 2.60941C20.35 4.28019 21.3333 6.54625 21.3333 8.90909V12.7273C22.0406 12.7273 22.7189 12.9955 23.219 13.4728C23.719 13.9502 24 14.5976 24 15.2727Z" fill="#7D6AF4"/>
</svg>
