<svg width="16" height="18" viewBox="0 0 16 18" fill="none" xmlns="http://www.w3.org/2000/svg">
<path fill-rule="evenodd" clip-rule="evenodd" d="M8.3246 4.23089C8.25438 4.23993 8.18293 4.23455 8.1151 4.21513C8.04727 4.19571 7.98464 4.16269 7.93148 4.11833C7.87832 4.07397 7.83586 4.0193 7.80698 3.95803C7.77811 3.89675 7.7635 3.83032 7.76415 3.76323C7.80083 2.90343 8.13455 2.0788 8.71407 1.41591C9.32405 0.72971 10.1438 0.239524 11.0604 0.0129216C11.1328 -0.00369958 11.2082 -0.00429374 11.2809 0.0111852C11.3536 0.0266642 11.4215 0.0577994 11.4794 0.102171C11.5373 0.146543 11.5836 0.202956 11.6147 0.267027C11.6458 0.331097 11.6609 0.401099 11.6588 0.471592C11.6072 1.33386 11.2754 2.15996 10.7089 2.83689C10.1262 3.5675 9.27554 4.06487 8.3246 4.23089ZM13.4732 9.46513C13.4732 7.01889 15.373 6.47028 15.373 5.93966C15.373 5.40905 13.7297 4.2219 11.9913 4.2219C10.253 4.2219 9.5785 4.99534 8.4006 4.99534C7.22269 4.99534 6.26327 4.2219 4.80038 4.2219C3.99478 4.26395 3.2126 4.49363 2.52325 4.89056C1.8339 5.28748 1.2587 5.83937 0.848692 6.49726C0.258268 7.46289 -0.0346102 8.5658 0.00325799 9.68098C0.00325799 13.6291 2.99552 18 5.19935 18C6.43425 18 6.74773 17.2355 8.44809 17.2355C10.1485 17.2355 10.4524 18 11.6113 18C14.0052 18 16 13.5032 16 13.4403C15.9991 13.3528 15.9718 13.2673 15.9213 13.194C15.8709 13.1207 15.7993 13.0626 15.715 13.0266C15.0328 12.6841 14.463 12.1709 14.0677 11.5429C13.6723 10.9149 13.4667 10.1962 13.4732 9.46513Z" fill="white"/>
</svg>
