<svg width="7" height="12" viewBox="0 0 7 12" fill="none" xmlns="http://www.w3.org/2000/svg">
<path d="M6.78001 5.28C6.9207 5.42052 6.99984 5.61116 7.00001 5.81001V6.19C6.99771 6.38842 6.9189 6.57828 6.78001 6.72001L1.64001 11.85C1.59353 11.8969 1.53823 11.9341 1.4773 11.9595C1.41637 11.9848 1.35102 11.9979 1.28501 11.9979C1.21901 11.9979 1.15365 11.9848 1.09272 11.9595C1.03179 11.9341 0.976494 11.8969 0.930013 11.85L0.220013 11.14C0.173449 11.0944 0.136456 11.0399 0.111202 10.9798C0.0859484 10.9197 0.0729408 10.8552 0.0729408 10.79C0.0729408 10.7248 0.0859484 10.6603 0.111202 10.6002C0.136456 10.5401 0.173449 10.4856 0.220013 10.44L4.67001 6L0.220013 1.56C0.173148 1.51352 0.135951 1.45822 0.110567 1.39729C0.0851828 1.33636 0.072113 1.27101 0.072113 1.205C0.072113 1.139 0.0851828 1.07365 0.110567 1.01272C0.135951 0.951787 0.173148 0.896486 0.220013 0.850005L0.930013 0.150005C0.976494 0.103141 1.03179 0.0659436 1.09272 0.0405593C1.15365 0.015175 1.21901 0.00210571 1.28501 0.00210571C1.35102 0.00210571 1.41637 0.015175 1.4773 0.0405593C1.53823 0.0659436 1.59353 0.103141 1.64001 0.150005L6.78001 5.28Z" fill="#B2BDC7"/>
</svg>
