<svg width="16" height="16" viewBox="0 0 16 16" fill="none" xmlns="http://www.w3.org/2000/svg">
<path d="M8.16119 0.000539093C10.1884 -0.0229766 12.1466 0.723645 13.622 2.08167L11.2919 4.36563C10.4493 3.57786 9.32471 3.1487 8.16119 3.16633C6.03205 3.16633 4.22378 4.57433 3.57905 6.47028C3.23719 7.46382 3.23719 8.53966 3.57905 9.5332C4.22978 11.4262 6.03505 12.8342 8.16418 12.8342C9.26474 12.8342 10.2094 12.5579 10.9411 12.0699L10.938 12.0712C11.7413 11.5487 12.3069 10.7483 12.5275 9.83613L12.5694 9.63902H8.16119V6.55847H15.8591C15.955 7.09345 16 7.64019 16 8.18399C16 10.6179 15.1124 12.6755 13.568 14.0688L13.5692 14.0664C12.2773 15.2384 10.5228 15.9374 8.44632 15.996L8.16119 16C5.07544 16 2.25358 14.2951 0.868147 11.5938L0.748556 11.3501C-0.287906 9.1436 -0.248042 6.58944 0.868147 4.40972L0.986901 4.18669C2.41056 1.61202 5.16115 0.000539093 8.16119 0.000539093Z" fill="white"/>
</svg>
