<svg width="18" height="20" viewBox="0 0 18 20" fill="none" xmlns="http://www.w3.org/2000/svg">
<path d="M17 5H14C14 3.67392 13.4732 2.40215 12.5355 1.46447C11.5979 0.526784 10.3261 0 9 0C7.67392 0 6.40215 0.526784 5.46447 1.46447C4.52678 2.40215 4 3.67392 4 5H1C0.734784 5 0.48043 5.10536 0.292893 5.29289C0.105357 5.48043 0 5.73478 0 6V18C0 18.5304 0.210714 19.0391 0.585786 19.4142C0.960859 19.7893 1.46957 20 2 20H16C16.5304 20 17.0391 19.7893 17.4142 19.4142C17.7893 19.0391 18 18.5304 18 18V6C18 5.73478 17.8946 5.48043 17.7071 5.29289C17.5196 5.10536 17.2652 5 17 5ZM6 8.5C6 8.63261 5.94732 8.75979 5.85355 8.85355C5.75979 8.94732 5.63261 9 5.5 9H4.5C4.36739 9 4.24021 8.94732 4.14645 8.85355C4.05268 8.75979 4 8.63261 4 8.5V7.5C4 7.36739 4.05268 7.24021 4.14645 7.14645C4.24021 7.05268 4.36739 7 4.5 7H5.5C5.63261 7 5.75979 7.05268 5.85355 7.14645C5.94732 7.24021 6 7.36739 6 7.5V8.5ZM9 2C9.79565 2 10.5587 2.31607 11.1213 2.87868C11.6839 3.44129 12 4.20435 12 5H6C6 4.20435 6.31607 3.44129 6.87868 2.87868C7.44129 2.31607 8.20435 2 9 2ZM14 8.5C14 8.63261 13.9473 8.75979 13.8536 8.85355C13.7598 8.94732 13.6326 9 13.5 9H12.5C12.3674 9 12.2402 8.94732 12.1464 8.85355C12.0527 8.75979 12 8.63261 12 8.5V7.5C12 7.36739 12.0527 7.24021 12.1464 7.14645C12.2402 7.05268 12.3674 7 12.5 7H13.5C13.6326 7 13.7598 7.05268 13.8536 7.14645C13.9473 7.24021 14 7.36739 14 7.5V8.5Z" fill="white"/>
</svg>
