<svg width="16" height="20" viewBox="0 0 16 20" fill="none" xmlns="http://www.w3.org/2000/svg">
<path d="M6.27933e-07 18C6.27933e-07 18.5304 0.210714 19.0391 0.585787 19.4142C0.96086 19.7893 1.46957 20 2 20H14C14.5304 20 15.0391 19.7893 15.4142 19.4142C15.7893 19.0391 16 18.5304 16 18V2C16 1.46957 15.7893 0.96086 15.4142 0.585787C15.0391 0.210714 14.5304 6.2793e-07 14 6.2793e-07H6.83C6.56609 -0.000208492 6.30475 0.0518167 6.06103 0.153078C5.81732 0.254338 5.59606 0.402832 5.41 0.590001L0.590001 5.41C0.402832 5.59606 0.254338 5.81732 0.153077 6.06103C0.0518165 6.30475 -0.000208492 6.56609 6.27933e-07 6.83V18ZM9 15.5C9 15.6326 8.94732 15.7598 8.85355 15.8536C8.75979 15.9473 8.63261 16 8.5 16H3.5C3.36739 16 3.24022 15.9473 3.14645 15.8536C3.05268 15.7598 3 15.6326 3 15.5V14.5C3 14.3674 3.05268 14.2402 3.14645 14.1464C3.24022 14.0527 3.36739 14 3.5 14H8.5C8.63261 14 8.75979 14.0527 8.85355 14.1464C8.94732 14.2402 9 14.3674 9 14.5V15.5ZM13 11.5C13 11.6326 12.9473 11.7598 12.8536 11.8536C12.7598 11.9473 12.6326 12 12.5 12H3.5C3.36739 12 3.24022 11.9473 3.14645 11.8536C3.05268 11.7598 3 11.6326 3 11.5V10.5C3 10.3674 3.05268 10.2402 3.14645 10.1464C3.24022 10.0527 3.36739 10 3.5 10H12.5C12.6326 10 12.7598 10.0527 12.8536 10.1464C12.9473 10.2402 13 10.3674 13 10.5V11.5ZM1.82 7L7 1.82V6C7 6.26522 6.89464 6.51957 6.70711 6.70711C6.51957 6.89464 6.26522 7 6 7H1.82Z" fill="white"/>
</svg>
