<svg width="21" height="21" viewBox="0 0 21 21" fill="none" xmlns="http://www.w3.org/2000/svg">
<path d="M1.18 8.86C1.09751 8.79994 1.03582 8.71563 1.00355 8.61882C0.971282 8.52202 0.97004 8.41755 1 8.32L1.08 8.07C1.10855 7.97356 1.16609 7.88824 1.24481 7.82562C1.32352 7.76301 1.4196 7.72613 1.52 7.72001L7.91 7.21L10.36 1.32C10.4001 1.21945 10.4711 1.13424 10.5627 1.07672C10.6544 1.01919 10.762 0.992322 10.87 1H11.13C11.2319 0.997843 11.3319 1.0275 11.4162 1.08486C11.5004 1.14222 11.5647 1.22441 11.6 1.32L14.06 7.21L20.45 7.72001C20.5504 7.72613 20.6465 7.76301 20.7252 7.82562C20.8039 7.88824 20.8614 7.97356 20.89 8.07L20.97 8.32C21.0032 8.41455 21.0066 8.51701 20.9798 8.61357C20.953 8.71012 20.8972 8.79613 20.82 8.86L16 13L17.48 19.21C17.5038 19.3072 17.4986 19.4094 17.4648 19.5036C17.431 19.5978 17.3702 19.6801 17.29 19.74L17 19.9C16.9173 19.9559 16.8198 19.9858 16.72 19.9858C16.6202 19.9858 16.5227 19.9559 16.44 19.9L11 16.6L5.53 19.93C5.44732 19.9859 5.3498 20.0158 5.25 20.0158C5.1502 20.0158 5.05268 19.9859 4.97 19.93L4.75 19.78C4.6698 19.7201 4.60902 19.6378 4.57524 19.5436C4.54145 19.4494 4.53615 19.3472 4.56 19.25L6 13L1.18 8.86Z" fill="white"/>
</svg>
