<svg width="20" height="14" viewBox="0 0 20 14" fill="none" xmlns="http://www.w3.org/2000/svg">
<path d="M12 4.5C12 4.00555 12.1466 3.5222 12.4213 3.11108C12.696 2.69995 13.0865 2.37952 13.5433 2.1903C14.0001 2.00108 14.5028 1.95157 14.9877 2.04804C15.4727 2.1445 15.9181 2.3826 16.2678 2.73223C16.6174 3.08187 16.8555 3.52732 16.952 4.01227C17.0484 4.49723 16.9989 4.99989 16.8097 5.45671C16.6205 5.91353 16.3 6.30397 15.8889 6.57868C15.4778 6.85338 14.9945 7 14.5 7C13.837 7 13.2011 6.73661 12.7322 6.26777C12.2634 5.79893 12 5.16304 12 4.5ZM7 6C7.59334 6 8.17336 5.82405 8.66671 5.49441C9.16006 5.16477 9.54457 4.69623 9.77164 4.14805C9.9987 3.59987 10.0581 2.99667 9.94236 2.41473C9.8266 1.83279 9.54088 1.29824 9.12132 0.878681C8.70176 0.459123 8.16721 0.173401 7.58527 0.0576455C7.00333 -0.0581102 6.40013 0.00129986 5.85195 0.228363C5.30377 0.455426 4.83523 0.839943 4.50559 1.33329C4.17595 1.82664 4 2.40666 4 3C4 3.79565 4.31607 4.55871 4.87868 5.12132C5.44129 5.68393 6.20435 6 7 6ZM12.45 9.66C12.2006 9.16035 11.8166 8.74025 11.3414 8.44698C10.8661 8.1537 10.3184 7.9989 9.76 8H4.24C3.68155 7.9989 3.13388 8.1537 2.65864 8.44698C2.18339 8.74025 1.79944 9.16035 1.55 9.66L0.109999 12.55C0.0332889 12.7022 -0.00323298 12.8715 0.00390139 13.0419C0.0110358 13.2122 0.0615896 13.3778 0.150762 13.5231C0.239934 13.6684 0.364765 13.7885 0.513399 13.8719C0.662032 13.9554 0.829535 13.9995 0.999999 14H13C13.1705 13.9995 13.338 13.9554 13.4866 13.8719C13.6352 13.7885 13.7601 13.6684 13.8492 13.5231C13.9384 13.3778 13.989 13.2122 13.9961 13.0419C14.0032 12.8715 13.9667 12.7022 13.89 12.55L12.45 9.66ZM19.89 12.55L18.94 10.65C18.6899 10.1537 18.3069 9.73669 17.8337 9.44535C17.3605 9.15401 16.8157 8.99983 16.26 9H14.35L15.68 11.66C15.8608 12.02 15.9673 12.4127 15.9931 12.8147C16.0189 13.2168 15.9634 13.6199 15.83 14H19C19.1705 13.9995 19.338 13.9554 19.4866 13.8719C19.6352 13.7885 19.7601 13.6684 19.8492 13.5231C19.9384 13.3778 19.989 13.2122 19.9961 13.0419C20.0032 12.8715 19.9667 12.7022 19.89 12.55Z" fill="white"/>
</svg>
