<svg width="12" height="7" viewBox="0 0 12 7" fill="none" xmlns="http://www.w3.org/2000/svg">
<path d="M6.72001 6.78004C6.57949 6.92074 6.38885 6.99987 6.19 7.00004H5.81001C5.61159 6.99774 5.42173 6.91893 5.28 6.78004L0.150005 1.64004C0.103141 1.59356 0.0659436 1.53826 0.0405593 1.47733C0.015175 1.4164 0.00210571 1.35105 0.00210571 1.28504C0.00210571 1.21904 0.015175 1.15368 0.0405593 1.09275C0.0659436 1.03182 0.103141 0.976525 0.150005 0.930043L0.860005 0.220043C0.905628 0.173479 0.960084 0.136487 1.02018 0.111233C1.08028 0.0859789 1.14482 0.0729713 1.21 0.0729713C1.27519 0.0729713 1.33973 0.0859789 1.39983 0.111233C1.45993 0.136487 1.51438 0.173479 1.56 0.220043L6 4.67004L10.44 0.220043C10.4865 0.173179 10.5418 0.135982 10.6027 0.110598C10.6636 0.0852133 10.729 0.0721436 10.795 0.0721436C10.861 0.0721436 10.9264 0.0852133 10.9873 0.110598C11.0482 0.135982 11.1035 0.173179 11.15 0.220043L11.85 0.930043C11.8969 0.976525 11.9341 1.03182 11.9595 1.09275C11.9848 1.15368 11.9979 1.21904 11.9979 1.28504C11.9979 1.35105 11.9848 1.4164 11.9595 1.47733C11.9341 1.53826 11.8969 1.59356 11.85 1.64004L6.72001 6.78004Z" fill="#1F1E1E"/>
</svg>
