<svg width="20" height="14" viewBox="0 0 20 14" fill="none" xmlns="http://www.w3.org/2000/svg">
<path d="M0 7.49997V6.49997C0 6.36737 0.0526785 6.24019 0.146447 6.14642C0.240215 6.05265 0.367392 5.99997 0.5 5.99997H16.67L12.22 1.55997C12.1731 1.51349 12.1359 1.45819 12.1106 1.39726C12.0852 1.33633 12.0721 1.27098 12.0721 1.20497C12.0721 1.13897 12.0852 1.07362 12.1106 1.01269C12.1359 0.951756 12.1731 0.896456 12.22 0.849974L12.93 0.149974C12.9765 0.10311 13.0318 0.0659131 13.0927 0.0405288C13.1536 0.0151444 13.219 0.0020752 13.285 0.0020752C13.351 0.0020752 13.4164 0.0151444 13.4773 0.0405288C13.5382 0.0659131 13.5935 0.10311 13.64 0.149974L19.78 6.27997C19.9207 6.42049 19.9998 6.61113 20 6.80997V7.18997C19.9977 7.38839 19.9189 7.57825 19.78 7.71997L13.64 13.85C13.5935 13.8968 13.5382 13.934 13.4773 13.9594C13.4164 13.9848 13.351 13.9979 13.285 13.9979C13.219 13.9979 13.1536 13.9848 13.0927 13.9594C13.0318 13.934 12.9765 13.8968 12.93 13.85L12.22 13.14C12.1734 13.0944 12.1364 13.0399 12.1112 12.9798C12.0859 12.9197 12.0729 12.8552 12.0729 12.79C12.0729 12.7248 12.0859 12.6603 12.1112 12.6002C12.1364 12.5401 12.1734 12.4856 12.22 12.44L16.67 7.99997H0.5C0.367392 7.99997 0.240215 7.9473 0.146447 7.85353C0.0526785 7.75976 0 7.63258 0 7.49997Z" fill="white"/>
</svg>
