<svg width="20" height="20" viewBox="0 0 20 20" fill="none" xmlns="http://www.w3.org/2000/svg">
<path d="M18 18C18 18.3955 17.8827 18.7822 17.6629 19.1111C17.4432 19.44 17.1308 19.6964 16.7654 19.8477C16.3999 19.9991 15.9978 20.0387 15.6098 19.9616C15.2219 19.8844 14.8655 19.6939 14.5858 19.4142C14.3061 19.1345 14.1156 18.7781 14.0384 18.3902C13.9613 18.0022 14.0009 17.6001 14.1522 17.2346C14.3036 16.8692 14.56 16.5568 14.8889 16.337C15.2178 16.1173 15.6044 16 16 16C16.5304 16 17.0391 16.2107 17.4142 16.5858C17.7893 16.9608 18 17.4696 18 18ZM6 16C5.60444 16 5.21776 16.1173 4.88886 16.337C4.55996 16.5568 4.30362 16.8692 4.15224 17.2346C4.00087 17.6001 3.96126 18.0022 4.03843 18.3902C4.1156 18.7781 4.30608 19.1345 4.58579 19.4142C4.86549 19.6939 5.22186 19.8844 5.60982 19.9616C5.99778 20.0387 6.39991 19.9991 6.76537 19.8477C7.13082 19.6964 7.44318 19.44 7.66294 19.1111C7.8827 18.7822 8 18.3955 8 18C8 17.4696 7.78929 16.9608 7.41421 16.5858C7.03914 16.2107 6.53043 16 6 16ZM19.5 1.99999H3.72L3.16 0.999985C2.98379 0.694777 2.73006 0.441548 2.42451 0.265942C2.11895 0.0903351 1.77242 -0.00141389 1.42 -1.47518e-05H0.5C0.367392 -1.47518e-05 0.240215 0.0526638 0.146447 0.146432C0.0526785 0.2402 0 0.367377 0 0.499985V1.49999C0 1.63259 0.0526785 1.75977 0.146447 1.85354C0.240215 1.94731 0.367392 1.99999 0.5 1.99999H1.42L5.7 9.48999C5.77797 9.61546 5.86843 9.73272 5.97 9.83999L4.11 13.54C4.05303 13.6496 4.02328 13.7714 4.02328 13.895C4.02328 14.0186 4.05303 14.1403 4.11 14.25L4.33 14.63C4.39896 14.7454 4.49732 14.8405 4.61502 14.9055C4.73273 14.9705 4.86557 15.0031 5 15H17.5C17.6326 15 17.7598 14.9473 17.8536 14.8535C17.9473 14.7598 18 14.6326 18 14.5V13.5C18 13.3674 17.9473 13.2402 17.8536 13.1464C17.7598 13.0527 17.6326 13 17.5 13H6.62L7.62 10.91C7.82904 10.9651 8.04386 10.9953 8.26 11H14.49C15.0039 10.9896 15.506 10.8448 15.9464 10.5798C16.3869 10.3149 16.7501 9.93911 17 9.48999L19.35 5.35999C19.7687 4.64343 19.9928 3.82986 20 2.99999V2.49999C20 2.36738 19.9473 2.2402 19.8536 2.14643C19.7598 2.05266 19.6326 1.99999 19.5 1.99999Z" fill="#989DA8"/>
</svg>
