<svg width="22" height="20" viewBox="0 0 22 20" fill="none" xmlns="http://www.w3.org/2000/svg">
<path fill-rule="evenodd" clip-rule="evenodd" d="M16.1953 16C15.0903 16 14.1953 16.896 14.1953 18C14.1953 19.104 15.0903 20 16.1953 20C17.2993 20 18.1953 19.104 18.1953 18C18.1953 16.896 17.2993 16 16.1953 16ZM8.1953 16C7.0903 16 6.19531 16.896 6.19531 18C6.19531 19.104 7.0903 20 8.1953 20C9.2993 20 10.1953 19.104 10.1953 18C10.1953 16.896 9.2993 16 8.1953 16ZM21.9353 1.435L20.0583 14H4.94331L2.94331 3H0.000305176V0H5.44731L7.44731 11H17.4723L18.4553 4.435H9.1953V1.435H21.9353Z" fill="#7D6AF4"/>
</svg>
