<svg width="10" height="8" viewBox="0 0 10 8" fill="none" xmlns="http://www.w3.org/2000/svg">
<path d="M8.8201 0.489974C8.72663 0.398361 8.60097 0.347046 8.4701 0.347046C8.33922 0.347046 8.21356 0.398361 8.1201 0.489974L3.3801 5.22997L1.8801 3.73997C1.83521 3.69214 1.78099 3.65402 1.72079 3.62796C1.66059 3.6019 1.59569 3.58846 1.5301 3.58846C1.4645 3.58846 1.3996 3.6019 1.3394 3.62796C1.2792 3.65402 1.22499 3.69214 1.1801 3.73997L0.650096 4.26997C0.603232 4.31646 0.566035 4.37176 0.540651 4.43269C0.515267 4.49362 0.502197 4.55897 0.502197 4.62497C0.502197 4.69098 0.515267 4.75633 0.540651 4.81726C0.566035 4.87819 0.603232 4.93349 0.650096 4.97997L3.0001 7.34997C3.04499 7.39781 3.0992 7.43593 3.1594 7.46199C3.2196 7.48805 3.2845 7.50149 3.3501 7.50149C3.41569 7.50149 3.48059 7.48805 3.54079 7.46199C3.60099 7.43593 3.65521 7.39781 3.7001 7.34997L9.3201 1.72997C9.36696 1.68349 9.40416 1.62819 9.42954 1.56726C9.45493 1.50633 9.468 1.44098 9.468 1.37497C9.468 1.30897 9.45493 1.24362 9.42954 1.18269C9.40416 1.12176 9.36696 1.06646 9.3201 1.01997L8.8201 0.489974Z" fill="white"/>
</svg>
