<svg width="18" height="20" viewBox="0 0 18 20" fill="none" xmlns="http://www.w3.org/2000/svg">
<path d="M17 8.04999L16.86 8.93999C16.6351 10.3583 15.9089 11.6488 14.8135 12.5773C13.718 13.5057 12.3259 14.0105 10.89 14H9.74999C9.57194 14.0001 9.39972 14.0635 9.26415 14.1789C9.12857 14.2943 9.03848 14.4542 9.00999 14.63L8.25999 19.37C8.22934 19.5466 8.13726 19.7067 8.00002 19.8219C7.86278 19.9372 7.68922 20.0003 7.50999 20H5.69999C5.62732 20.0012 5.55528 19.9863 5.4891 19.9562C5.42292 19.9262 5.36425 19.8818 5.31734 19.8263C5.27043 19.7708 5.23647 19.7055 5.2179 19.6352C5.19933 19.565 5.19663 19.4914 5.20999 19.42L6.33999 12.26C6.38961 12.113 6.48357 11.9851 6.60894 11.8937C6.7343 11.8024 6.8849 11.7522 7.03999 11.75H8.73999C10.5359 11.7487 12.2756 11.1238 13.6619 9.982C15.0481 8.8402 15.9947 7.25241 16.34 5.48999C16.6129 5.85236 16.8117 6.26499 16.9249 6.70427C17.0382 7.14355 17.0637 7.60085 17 8.04999ZM8.73999 9.99999C10.1691 10.001 11.5516 9.49183 12.6387 8.56422C13.7258 7.6366 14.4461 6.35143 14.67 4.93999L14.81 4.04999C14.8816 3.5536 14.8458 3.04761 14.7048 2.56629C14.5639 2.08498 14.3211 1.63957 13.993 1.26026C13.6649 0.880939 13.2591 0.576567 12.8031 0.367759C12.3471 0.15895 11.8515 0.0505821 11.35 0.0499944H4.34999C4.1103 0.0469094 3.87748 0.130027 3.69393 0.284207C3.51038 0.438387 3.38833 0.653369 3.34999 0.889995L0.999993 15.42C0.986431 15.4923 0.989319 15.5667 1.00844 15.6377C1.02757 15.7088 1.06243 15.7746 1.11046 15.8303C1.15849 15.886 1.21844 15.9302 1.28587 15.9596C1.35331 15.9889 1.42649 16.0028 1.49999 16H3.30999C3.4886 16.002 3.6619 15.9393 3.79791 15.8235C3.93392 15.7077 4.02345 15.5466 4.04999 15.37L4.80999 10.63C4.83653 10.4534 4.92607 10.2923 5.06208 10.1765C5.19808 10.0607 5.37138 9.99801 5.54999 9.99999H8.73999Z" fill="white"/>
</svg>
