<svg width="19" height="18" viewBox="0 0 19 18" fill="none" xmlns="http://www.w3.org/2000/svg">
<path d="M4.50169 4.5C4.50169 3.60999 4.76569 2.73996 5.26031 1.99994C5.75492 1.25991 6.45794 0.683139 7.28046 0.342544C8.10297 0.00194978 9.00805 -0.0871652 9.88122 0.0864683C10.7544 0.260102 11.5565 0.688685 12.186 1.31802C12.8155 1.94736 13.2442 2.74918 13.4179 3.6221C13.5916 4.49501 13.5025 5.39981 13.1618 6.22208C12.8211 7.04434 12.2441 7.74715 11.5039 8.24162C10.7636 8.73608 9.89334 9 9.00305 9C7.80922 9 6.66428 8.5259 5.82011 7.68198C4.97594 6.83807 4.50169 5.69348 4.50169 4.5ZM17.9067 16.695L16.2052 13.284C15.831 12.5375 15.2564 11.9098 14.5457 11.4711C13.835 11.0324 13.0163 10.8 12.181 10.8H5.82509C4.98983 10.8 4.17105 11.0324 3.46035 11.4711C2.74966 11.9098 2.17507 12.5375 1.80087 13.284L0.0993573 16.695C0.0302975 16.832 -0.00258218 16.9844 0.0038407 17.1377C0.0102636 17.291 0.0557758 17.4401 0.136055 17.5708C0.216335 17.7016 0.328716 17.8096 0.462527 17.8847C0.596338 17.9599 0.747136 17.9995 0.9006 18H17.1055C17.259 17.9995 17.4098 17.9599 17.5436 17.8847C17.6774 17.8096 17.7898 17.7016 17.87 17.5708C17.9503 17.4401 17.9958 17.291 18.0023 17.1377C18.0087 16.9844 17.9758 16.832 17.9067 16.695Z" fill="#989DA8"/>
</svg>
