<svg width="24" height="24" viewBox="0 0 24 24" fill="none" xmlns="http://www.w3.org/2000/svg">
<path d="M12 2C10.0222 2 8.08879 2.58649 6.4443 3.6853C4.79981 4.78412 3.51809 6.3459 2.76121 8.17317C2.00433 10.0004 1.8063 12.0111 2.19215 13.9509C2.578 15.8907 3.53041 17.6725 4.92894 19.0711C6.32746 20.4696 8.10929 21.422 10.0491 21.8079C11.9889 22.1937 13.9996 21.9957 15.8268 21.2388C17.6541 20.4819 19.2159 19.2002 20.3147 17.5557C21.4135 15.9112 22 13.9778 22 12C22 10.6868 21.7413 9.38642 21.2388 8.17317C20.7363 6.95991 19.9997 5.85752 19.0711 4.92893C18.1425 4.00035 17.0401 3.26375 15.8268 2.7612C14.6136 2.25866 13.3132 2 12 2ZM16 12.5C16 12.6326 15.9473 12.7598 15.8536 12.8536C15.7598 12.9473 15.6326 13 15.5 13H13V15.5C13 15.6326 12.9473 15.7598 12.8536 15.8536C12.7598 15.9473 12.6326 16 12.5 16H11.5C11.3674 16 11.2402 15.9473 11.1465 15.8536C11.0527 15.7598 11 15.6326 11 15.5V13H8.5C8.3674 13 8.24022 12.9473 8.14645 12.8536C8.05268 12.7598 8 12.6326 8 12.5V11.5C8 11.3674 8.05268 11.2402 8.14645 11.1464C8.24022 11.0527 8.3674 11 8.5 11H11V8.5C11 8.36739 11.0527 8.24021 11.1465 8.14645C11.2402 8.05268 11.3674 8 11.5 8H12.5C12.6326 8 12.7598 8.05268 12.8536 8.14645C12.9473 8.24021 13 8.36739 13 8.5V11H15.5C15.6326 11 15.7598 11.0527 15.8536 11.1464C15.9473 11.2402 16 11.3674 16 11.5V12.5Z" fill="#7D6AF4"/>
</svg>
