<svg width="10" height="10" viewBox="0 0 10 10" fill="none" xmlns="http://www.w3.org/2000/svg">
<path d="M10 4.64286V5.35714C10 5.45186 9.96237 5.5427 9.8954 5.60968C9.82842 5.67666 9.73758 5.71429 9.64286 5.71429H5.71429V9.64286C5.71429 9.73758 5.67666 9.82842 5.60968 9.8954C5.5427 9.96237 5.45186 10 5.35714 10H4.64286C4.54814 10 4.4573 9.96237 4.39032 9.8954C4.32334 9.82842 4.28571 9.73758 4.28571 9.64286V5.71429H0.357143C0.262423 5.71429 0.171582 5.67666 0.104605 5.60968C0.0376275 5.5427 0 5.45186 0 5.35714V4.64286C0 4.54814 0.0376275 4.4573 0.104605 4.39032C0.171582 4.32334 0.262423 4.28571 0.357143 4.28571H4.28571V0.357143C4.28571 0.262423 4.32334 0.171582 4.39032 0.104605C4.4573 0.0376275 4.54814 0 4.64286 0H5.35714C5.45186 0 5.5427 0.0376275 5.60968 0.104605C5.67666 0.171582 5.71429 0.262423 5.71429 0.357143V4.28571H9.64286C9.73758 4.28571 9.82842 4.32334 9.8954 4.39032C9.96237 4.4573 10 4.54814 10 4.64286Z" fill="white"/>
</svg>
