<svg width="12" height="7" viewBox="0 0 12 7" fill="none" xmlns="http://www.w3.org/2000/svg">
<path d="M6.71997 6.77992C6.57946 6.92061 6.38882 6.99975 6.18997 6.99992H5.80997C5.61156 6.99762 5.42169 6.9188 5.27997 6.77992L0.149974 1.63992C0.10311 1.59344 0.0659131 1.53814 0.0405288 1.47721C0.0151444 1.41628 0.0020752 1.35093 0.0020752 1.28492C0.0020752 1.21891 0.0151444 1.15356 0.0405288 1.09263C0.0659131 1.0317 0.10311 0.976403 0.149974 0.929921L0.859974 0.219921C0.905597 0.173357 0.960053 0.136365 1.02015 0.111111C1.08025 0.0858568 1.14478 0.0728493 1.20997 0.0728493C1.27516 0.0728493 1.3397 0.0858568 1.3998 0.111111C1.4599 0.136365 1.51435 0.173357 1.55997 0.219921L5.99997 4.66992L10.44 0.219921C10.4865 0.173057 10.5418 0.13586 10.6027 0.110476C10.6636 0.0850912 10.729 0.0720215 10.795 0.0720215C10.861 0.0720215 10.9263 0.0850912 10.9873 0.110476C11.0482 0.13586 11.1035 0.173057 11.15 0.219921L11.85 0.929921C11.8968 0.976403 11.934 1.0317 11.9594 1.09263C11.9848 1.15356 11.9979 1.21891 11.9979 1.28492C11.9979 1.35093 11.9848 1.41628 11.9594 1.47721C11.934 1.53814 11.8968 1.59344 11.85 1.63992L6.71997 6.77992Z" fill="#535B62"/>
</svg>
