<svg width="7" height="12" viewBox="0 0 7 12" fill="none" xmlns="http://www.w3.org/2000/svg">
<path d="M6.78004 5.27997C6.92074 5.42049 6.99987 5.61113 7.00004 5.80997V6.18997C6.99774 6.38839 6.91893 6.57825 6.78004 6.71997L1.64004 11.85C1.59356 11.8968 1.53826 11.934 1.47733 11.9594C1.4164 11.9848 1.35105 11.9979 1.28504 11.9979C1.21904 11.9979 1.15368 11.9848 1.09275 11.9594C1.03182 11.934 0.976525 11.8968 0.930043 11.85L0.220043 11.14C0.173479 11.0944 0.136487 11.0399 0.111233 10.9798C0.0859789 10.9197 0.0729713 10.8552 0.0729713 10.79C0.0729713 10.7248 0.0859789 10.6603 0.111233 10.6002C0.136487 10.5401 0.173479 10.4856 0.220043 10.44L4.67004 5.99997L0.220043 1.55997C0.173179 1.51349 0.135982 1.45819 0.110598 1.39726C0.0852133 1.33633 0.0721436 1.27098 0.0721436 1.20497C0.0721436 1.13897 0.0852133 1.07362 0.110598 1.01269C0.135982 0.951756 0.173179 0.896456 0.220043 0.849974L0.930043 0.149974C0.976525 0.10311 1.03182 0.0659131 1.09275 0.0405288C1.15368 0.0151444 1.21904 0.0020752 1.28504 0.0020752C1.35105 0.0020752 1.4164 0.0151444 1.47733 0.0405288C1.53826 0.0659131 1.59356 0.10311 1.64004 0.149974L6.78004 5.27997Z" fill="#535B62"/>
</svg>
