<svg width="24" height="24" viewBox="0 0 24 24" fill="none" xmlns="http://www.w3.org/2000/svg">
<rect x="2" y="2" width="20" height="20" rx="10" fill="#7D6AF4"/>
<path d="M15.8201 8.48997C15.7266 8.39836 15.601 8.34705 15.4701 8.34705C15.3392 8.34705 15.2136 8.39836 15.1201 8.48997L10.3801 13.23L8.8801 11.74C8.83521 11.6921 8.78099 11.654 8.72079 11.628C8.66059 11.6019 8.59569 11.5885 8.5301 11.5885C8.4645 11.5885 8.3996 11.6019 8.3394 11.628C8.2792 11.654 8.22499 11.6921 8.1801 11.74L7.6501 12.27C7.60323 12.3165 7.56604 12.3718 7.54065 12.4327C7.51527 12.4936 7.5022 12.559 7.5022 12.625C7.5022 12.691 7.51527 12.7563 7.54065 12.8173C7.56604 12.8782 7.60323 12.9335 7.6501 12.98L10.0001 15.35C10.045 15.3978 10.0992 15.4359 10.1594 15.462C10.2196 15.488 10.2845 15.5015 10.3501 15.5015C10.4157 15.5015 10.4806 15.488 10.5408 15.462C10.601 15.4359 10.6552 15.3978 10.7001 15.35L16.3201 9.72997C16.367 9.68349 16.4042 9.62819 16.4295 9.56726C16.4549 9.50633 16.468 9.44098 16.468 9.37497C16.468 9.30897 16.4549 9.24362 16.4295 9.18269C16.4042 9.12176 16.367 9.06646 16.3201 9.01997L15.8201 8.48997Z" fill="white"/>
</svg>
