<svg width="24" height="24" viewBox="0 0 24 24" fill="none" xmlns="http://www.w3.org/2000/svg">
<path d="M20.3 8.4C20.1111 8.14819 19.8148 8 19.5 8H17V5C17 4.44772 16.5523 4 16 4H3C1.9 4 1 4.9 1 6V16C1 16.5523 1.44772 17 2 17H3C3 18.66 4.34 20 6 20C7.66 20 9 18.66 9 17H15C15 18.66 16.34 20 18 20C19.66 20 21 18.66 21 17H22C22.5523 17 23 16.5523 23 16V12.3333C23 12.117 22.9298 11.9064 22.8 11.7333L20.3 8.4ZM6 18.5C5.17 18.5 4.5 17.83 4.5 17C4.5 16.17 5.17 15.5 6 15.5C6.83 15.5 7.5 16.17 7.5 17C7.5 17.83 6.83 18.5 6 18.5ZM19.5 9.5L21.46 12H17V9.5H19.5ZM18 18.5C17.17 18.5 16.5 17.83 16.5 17C16.5 16.17 17.17 15.5 18 15.5C18.83 15.5 19.5 16.17 19.5 17C19.5 17.83 18.83 18.5 18 18.5Z" fill="#989DA8"/>
</svg>
