<svg width="20" height="18" viewBox="0 0 20 18" fill="none" xmlns="http://www.w3.org/2000/svg">
<path d="M2 1.5V0.5C2 0.367392 2.05268 0.240215 2.14645 0.146447C2.24021 0.0526785 2.36739 0 2.5 0H17.5C17.6326 0 17.7598 0.0526785 17.8536 0.146447C17.9473 0.240215 18 0.367392 18 0.5V1.5C18 1.63261 17.9473 1.75979 17.8536 1.85355C17.7598 1.94732 17.6326 2 17.5 2H2.5C2.36739 2 2.24021 1.94732 2.14645 1.85355C2.05268 1.75979 2 1.63261 2 1.5ZM19.79 7.58L18.28 4.58C18.1961 4.41356 18.0674 4.27388 17.9084 4.17669C17.7494 4.07951 17.5664 4.0287 17.38 4.03H2.62C2.43364 4.0287 2.25062 4.07951 2.09159 4.17669C1.93257 4.27388 1.80386 4.41356 1.72 4.58L0.21 7.58C0.0722083 7.85647 0.000329687 8.1611 0 8.47V9C0 9.26522 0.105357 9.51957 0.292893 9.70711C0.48043 9.89464 0.734784 10 1 10H2V17C2 17.2652 2.10536 17.5196 2.29289 17.7071C2.48043 17.8946 2.73478 18 3 18H7C7.26522 18 7.51957 17.8946 7.70711 17.7071C7.89464 17.5196 8 17.2652 8 17V12.25C8 12.1837 8.02634 12.1201 8.07322 12.0732C8.12011 12.0263 8.1837 12 8.25 12H11.75C11.8163 12 11.8799 12.0263 11.9268 12.0732C11.9737 12.1201 12 12.1837 12 12.25V17C12 17.2652 12.1054 17.5196 12.2929 17.7071C12.4804 17.8946 12.7348 18 13 18H17C17.2652 18 17.5196 17.8946 17.7071 17.7071C17.8946 17.5196 18 17.2652 18 17V10H19C19.2652 10 19.5196 9.89464 19.7071 9.70711C19.8946 9.51957 20 9.26522 20 9V8.47C19.9997 8.1611 19.9278 7.85647 19.79 7.58Z" fill="#7D6AF4"/>
</svg>
