<svg width="32" height="22" viewBox="0 0 32 22" fill="none" xmlns="http://www.w3.org/2000/svg">
<rect y="0.00012207" width="32" height="21.9999" rx="4" fill="white"/>
<path d="M5.92 12.3063V17.9163H11.4267L12 17.0775L12.56 17.9163H15.9267V16.6513H16.3C16.6389 16.6543 16.9762 16.6033 17.3 16.5V17.9163H19.5867V16.9125L20.36 17.9163H30.7733C31.2014 17.924 31.6225 17.8046 31.9867 17.5725V19.9375C31.6816 21.1559 30.6136 22.0053 29.3933 22H2.66667C1.19391 22 0 20.7688 0 19.25V10.5875H1.52L1.83333 9.74881H2.58L2.88667 10.5875H15.1133V9.58381L15.8867 10.5875H19.0933V10.0788C19.5636 10.424 20.1297 10.6025 20.7067 10.5875H22.62L22.9267 9.74881H23.6733L24 10.5875H27.2667V9.50131L27.9333 10.5875H30.1867V4.97759H27.7933V6.11883L27.08 4.97759H24.9867V6.42133L24.32 4.97759H20.76C20.1577 4.95959 19.5683 5.15898 19.0933 5.54133V4.97759H7.33333L6.93333 6.18758L6.53333 4.95009H3.86667V6.39383L3.24 4.95009H1.06667L0 7.56257V2.7501C0 1.23133 1.19391 0.000118762 2.66667 0.000118762H29.3933C30.6185 -0.01156 31.6937 0.839209 32 2.06261V12.3063H12.5733L12 13.1313L11.44 12.3063H5.92Z" fill="#2774BC"/>
<path fill-rule="evenodd" clip-rule="evenodd" d="M14.2132 13.2H16.2865V13.1725C16.6318 13.1425 16.9729 13.2671 17.2229 13.5144C17.4729 13.7618 17.6078 14.108 17.5932 14.465C17.6018 14.8262 17.4617 15.1743 17.2076 15.4232C16.9536 15.6721 16.6093 15.7985 16.2599 15.7712H15.1265V17.0499H14.2132V13.2ZM9.80662 13.9973V13.1723H6.78662V17.0498H9.80662V16.2248H7.69329V15.5373H9.76662V14.6986H7.69329V14.0111L9.80662 13.9973ZM12.5333 15.1248L14.0399 13.1998H12.9333L11.9999 14.3961L11.0733 13.1723H9.93994L11.4666 15.1248L9.99994 17.0498H11.0933L11.9999 15.8123L12.9066 17.0635H14.0533L12.5333 15.1248ZM16.2067 14.9738H15.1267V13.9975H16.2067C16.4608 13.9975 16.6667 14.2099 16.6667 14.4719C16.6667 14.7339 16.4608 14.9463 16.2067 14.9463V14.9738ZM21.4465 14.2931C21.5238 14.9689 21.0552 15.5814 20.3998 15.6612L21.6598 17.0499H20.5198L19.3998 15.6749H18.9865V17.0499H18.0798V13.2137H20.1198C20.7752 13.134 21.3692 13.6172 21.4465 14.2931ZM20.0399 14.8912H18.9866V13.9974H20.0399C20.1584 13.9815 20.2778 14.0193 20.3673 14.101C20.4568 14.1828 20.5076 14.3004 20.5066 14.4237C20.5099 14.5477 20.4597 14.6669 20.3697 14.7491C20.2796 14.8314 20.1589 14.8683 20.0399 14.8499V14.8912ZM24.9066 13.2138V14.0388L22.7933 14.0113V14.6988H24.8533V15.5375H22.7933V16.225H24.9066V17.05H21.8733V13.2138H24.9066ZM27.4198 14.7263H26.5465C26.4115 14.7543 26.2735 14.6955 26.1969 14.5775C26.1203 14.4595 26.1203 14.3056 26.1969 14.1875C26.2735 14.0695 26.4115 14.0108 26.5465 14.0388H28.1665L28.5265 13.2138H26.5731C26.2408 13.1741 25.908 13.2843 25.6602 13.5161C25.4124 13.7479 25.2737 14.0788 25.2798 14.4238C25.2595 14.7448 25.3792 15.0584 25.6061 15.2791C25.833 15.4998 26.1436 15.6046 26.4531 15.565H27.3331C27.4681 15.5371 27.6061 15.5958 27.6827 15.7138C27.7593 15.8318 27.7593 15.9858 27.6827 16.1038C27.6061 16.2218 27.4681 16.2805 27.3331 16.2525H25.3865V17.0775H27.3331C27.6691 17.1059 28.0005 16.9829 28.242 16.7405C28.4836 16.498 28.6116 16.1596 28.5931 15.8125C28.61 15.4948 28.4882 15.1858 28.2612 14.9703C28.0341 14.7548 27.7255 14.6552 27.4198 14.6988V14.7263ZM31.64 14.038H30.02L30 14.0105C29.865 13.9825 29.727 14.0412 29.6504 14.1592C29.5739 14.2772 29.5739 14.4312 29.6504 14.5492C29.727 14.6672 29.865 14.726 30 14.698H30.9067C31.3679 14.6491 31.8078 14.9091 32 15.3442V16.2655C31.8164 16.7896 31.3111 17.1181 30.7733 17.063H28.86V16.238H30.7867C30.9217 16.266 31.0597 16.2072 31.1363 16.0892C31.2128 15.9712 31.2128 15.8172 31.1363 15.6992C31.0597 15.5812 30.9217 15.5225 30.7867 15.5505H29.9267C29.6171 15.5901 29.3066 15.4852 29.0797 15.2645C28.8527 15.0438 28.7331 14.7302 28.7534 14.4092C28.7473 14.0643 28.8859 13.7334 29.1337 13.5016C29.3815 13.2697 29.7143 13.1595 30.0467 13.1992H32L31.64 14.038Z" fill="#2774BC"/>
<path fill-rule="evenodd" clip-rule="evenodd" d="M16.9666 7.06758C16.9812 7.68735 16.5368 8.21711 15.9399 8.29132L17.1933 9.72131H16.0599L14.9399 8.34632H14.5266V9.72131H13.5999V5.84384H15.6333C15.973 5.79789 16.3153 5.90648 16.5712 6.14137C16.8272 6.37627 16.9714 6.71429 16.9666 7.06758ZM2.82 5.84351H1.63333L0 9.72098H0.986667L1.33333 8.93724H3.08667L3.40667 9.74848H4.43333L2.82 5.84351ZM1.58667 8.15376L1.95334 7.24627L2.19334 6.64127L2.43334 7.24627L2.79334 8.15376H1.58667ZM7.06661 8.08474L7.79994 5.84351H9.25994V9.72098H8.37994V7.17725V6.586L8.20661 7.17725L7.33327 9.72098H6.53327L5.67994 7.17725L5.49327 6.586V7.17725V9.72098H4.60661V5.84351H6.07994L6.82661 8.08474L6.94661 8.51099L7.06661 8.08474ZM13 6.6685V5.84351H10V9.72098H13V8.89599H10.8867V8.20849H12.9467V7.36975H10.8867V6.68225L13 6.6685ZM15.5799 7.52138H14.5266V6.66888H15.5799C15.698 6.65526 15.8162 6.69385 15.9051 6.77509C15.994 6.85633 16.0455 6.97261 16.0466 7.09513C16.0499 7.21914 15.9998 7.3383 15.9097 7.42056C15.8197 7.50281 15.6989 7.53973 15.5799 7.52138ZM17.4067 9.72098V5.84351H18.3201V9.72098H17.4067ZM20.7401 6.68241H21.7201V5.84367H20.6667C20.1709 5.81134 19.6861 6.00433 19.34 6.37188C18.9938 6.73942 18.8209 7.24473 18.8667 7.7549V7.8099C18.811 8.31278 18.9731 8.81541 19.3097 9.18376C19.6464 9.5521 20.1233 9.7487 20.6134 9.72114H20.6667L21.0334 8.89615H20.7334C20.4567 8.91081 20.188 8.79796 20 8.58813C19.812 8.3783 19.7241 8.09318 19.7601 7.8099V7.7549C19.7284 7.47384 19.8182 7.19263 20.0057 6.98603C20.1932 6.77944 20.4594 6.66839 20.7334 6.68241H20.7401ZM22.7266 5.84351H23.9266L25.5333 9.74848H24.5066L24.1866 8.93724H22.4066L22.0866 9.72098H21.1133L22.7266 5.84351ZM22.7 8.15376L23.0466 7.24627L23.2866 6.64127L23.5133 7.24627L23.8733 8.15376H22.7ZM28.4067 7.90599V5.84351H29.3334V9.72098H28.2334L26.84 7.53474L26.6 7.1085V7.56224V9.74848H25.7067V5.87101H26.82L28.1534 7.93349L28.4067 8.37349V7.90599Z" fill="#2774BC"/>
</svg>
