<svg width="32" height="22" viewBox="0 0 32 22" fill="none" xmlns="http://www.w3.org/2000/svg">
<g id="discover-icon-32px">
<path id="card_bg" d="M32 2.74999V19.2499C32 20.7687 30.8061 21.9999 29.3333 21.9999H2.66667C2.35722 22.0023 2.04995 21.9464 1.76 21.8349C0.70414 21.4413 0.000477693 20.4078 0 19.2499V2.74999C0 1.23121 1.19391 0 2.66667 0H29.3333C30.8061 0 32 1.23121 32 2.74999Z" fill="#DFE3E8"/>
<g id="discover">
<path id="Path" d="M31.9999 10.9999V19.2255C31.9999 20.7577 30.7892 21.9998 29.2956 21.9998H2.25271C1.9389 22.0022 1.6273 21.9458 1.33325 21.8333C3.60486 21.5004 5.79533 21.0843 7.94524 20.6126C8.51315 20.5017 9.06753 20.363 9.62191 20.2381C18.5596 18.1436 26.2939 15.0641 30.6478 12.0402C31.1345 11.6934 31.5943 11.3467 31.9999 10.9999Z" fill="#EE7623"/>
<path id="Shape" fill-rule="evenodd" clip-rule="evenodd" d="M2.66675 7.31492H3.88008V7.28742C4.80892 7.21814 5.67514 7.77436 6.02467 8.66452C6.3742 9.55468 6.12731 10.5757 5.41341 11.1924C4.97777 11.5444 4.43258 11.7204 3.88008 11.6874H2.66675V7.31492ZM3.71993 10.9999C4.13701 11.0377 4.55101 10.8987 4.86659 10.6149C5.16675 10.3334 5.33646 9.93334 5.33326 9.51493C5.33905 9.09597 5.1689 8.69489 4.86659 8.41493C4.54574 8.14314 4.13305 8.01448 3.71993 8.05743H3.50659V10.9999H3.71993Z" fill="#231F20"/>
<rect id="Rectangle" x="6.56665" y="7.30811" width="0.833333" height="4.41373" fill="#231F20"/>
<path id="Path_2" d="M9.4466 8.99938C8.9466 8.81376 8.77993 8.68313 8.77993 8.44251C8.77993 8.20188 9.03993 7.95438 9.39993 7.95438C9.66255 7.96576 9.90675 8.0967 10.0666 8.31188L10.4999 7.72751C10.1578 7.40508 9.71003 7.22822 9.2466 7.23251C8.90515 7.20992 8.56959 7.33228 8.31779 7.57117C8.06599 7.81006 7.91984 8.14473 7.91326 8.49751C7.91326 9.10938 8.17993 9.41875 8.95993 9.7075C9.16043 9.77374 9.35459 9.85889 9.53993 9.96188C9.69707 10.0554 9.7937 10.2285 9.79327 10.4156C9.79205 10.5922 9.71936 10.7601 9.59275 10.8789C9.46614 10.9978 9.29714 11.0566 9.1266 11.0412C8.73781 11.0456 8.38279 10.8141 8.21993 10.45L7.67993 10.9862C7.99507 11.5365 8.58117 11.8599 9.19993 11.825C9.58473 11.8521 9.96285 11.7111 10.2418 11.4365C10.5208 11.1619 10.675 10.7789 10.6666 10.3813C10.6666 9.68 10.3933 9.35688 9.4466 8.99938Z" fill="#231F20"/>
<path id="Path_3" d="M10.94 9.51487C10.9345 10.1322 11.1717 10.7256 11.5975 11.1595C12.0234 11.5935 12.6015 11.831 13.2 11.818C13.5636 11.8202 13.9224 11.733 14.2467 11.5636V10.553C13.9949 10.8566 13.6275 11.0323 13.24 11.0342C12.8482 11.0444 12.4699 10.8854 12.1966 10.5957C11.9232 10.3059 11.7795 9.91169 11.8 9.50799C11.7875 9.1149 11.9288 8.73312 12.1921 8.44862C12.4554 8.16412 12.8187 8.00082 13.2 7.9955C13.6018 7.99716 13.9833 8.17759 14.2467 8.4905V7.47987C13.9325 7.30025 13.5793 7.20564 13.22 7.20488C12.6201 7.19754 12.0421 7.43724 11.6141 7.87084C11.1862 8.30445 10.9435 8.89617 10.94 9.51487Z" fill="#231F20"/>
<path id="Path_4" d="M20.8666 10.2712L19.7199 7.30811H18.8132L20.6266 11.8318H21.0732L22.9266 7.30811H22.0199L20.8666 10.2712Z" fill="#231F20"/>
<path id="Path_5" d="M23.3 11.7218H25.6734V10.9725H24.1334V9.7831H25.6134V9.03372H24.1334V8.05748H25.6734V7.30811H23.3V11.7218Z" fill="#231F20"/>
<path id="Shape_2" fill-rule="evenodd" clip-rule="evenodd" d="M28.9735 8.60756C29.0189 9.22655 28.595 9.77744 28.0001 9.87255L29.3335 11.6875H28.3201L27.1601 9.9413H27.0668V11.6875H26.2268V7.31506H27.4535C28.4268 7.31506 28.9735 7.78256 28.9735 8.60756ZM27.0667 9.33623H27.3333C27.8267 9.33623 28.12 9.15748 28.12 8.68998C28.12 8.22248 27.84 8.00248 27.3333 8.00248H27.0667V9.33623Z" fill="#231F20"/>
<path id="Path_6" d="M19.0601 9.51502C19.0601 10.8098 18.0423 11.8594 16.7868 11.8594C15.5312 11.8594 14.5134 10.8098 14.5134 9.51502C14.5134 8.22026 15.5312 7.17065 16.7868 7.17065C18.0408 7.17443 19.0564 8.22183 19.0601 9.51502Z" fill="#EE7623"/>
<path id="Shape_3" fill-rule="evenodd" clip-rule="evenodd" d="M29.4133 7.39768C29.4112 7.44487 29.3782 7.48453 29.3333 7.49393L29.4533 7.67267H29.3466L29.2266 7.50768V7.67267H29.1333V7.27393H29.2666C29.36 7.27393 29.4133 7.31518 29.4133 7.39768ZM29.32 7.39764C29.32 7.35639 29.2933 7.35639 29.2533 7.35639V7.43889H29.2667C29.3019 7.43889 29.3148 7.43889 29.3191 7.43281C29.323 7.42738 29.32 7.4171 29.32 7.39764Z" fill="#231F20"/>
<path id="Shape_4" fill-rule="evenodd" clip-rule="evenodd" d="M28.9734 7.46622C28.9732 7.28161 29.1145 7.12985 29.2934 7.12247C29.3841 7.11872 29.4723 7.15328 29.5378 7.21816C29.6032 7.28303 29.6401 7.37262 29.6401 7.46622C29.6401 7.65606 29.4908 7.80997 29.3067 7.80997C29.1226 7.80997 28.9734 7.65606 28.9734 7.46622ZM29.2934 7.7546C29.3605 7.75678 29.4247 7.72621 29.4667 7.6721C29.5167 7.61559 29.5451 7.54231 29.5467 7.46585C29.5467 7.32157 29.4333 7.2046 29.2934 7.2046C29.1534 7.2046 29.04 7.32157 29.04 7.46585C29.0345 7.53928 29.0585 7.61182 29.1064 7.66643C29.1544 7.72105 29.222 7.75293 29.2934 7.7546Z" fill="#231F20"/>
</g>
</g>
</svg>
