<svg width="32" height="22" viewBox="0 0 32 22" fill="none" xmlns="http://www.w3.org/2000/svg">
<rect width="32" height="22" rx="4" fill="#141413"/>
<g opacity="0.01">
<rect x="3.09985" y="2.19995" width="25.8067" height="17.6" fill="white"/>
</g>
<rect x="12.5999" y="5.26611" width="6.80667" height="11.4675" fill="#F26122"/>
<path d="M13.3333 10.9999C13.3221 8.76799 14.3051 6.65428 16 5.26618C13.1002 2.91445 8.93463 3.25595 6.43153 6.05062C3.92842 8.8453 3.92842 13.1546 6.43153 15.9492C8.93463 18.7439 13.1002 19.0854 16 16.7337C14.3051 15.3456 13.3221 13.2319 13.3333 10.9999Z" fill="#EA1D25"/>
<path fill-rule="evenodd" clip-rule="evenodd" d="M26.7598 15.283V15.5167H26.7198V15.283H26.6265V15.2349H26.8598V15.283H26.7598ZM27.2132 15.2349V15.5167H27.1665V15.3036L27.0932 15.4892H27.0399L26.9599 15.3036V15.5167H26.9132V15.2349H26.9799L27.0665 15.4342L27.1465 15.2349H27.2132Z" fill="#F69E1E"/>
<path d="M27.44 10.9999C27.4383 13.7907 25.8926 16.3359 23.4586 17.5558C21.0246 18.7757 18.129 18.4566 16 16.7337C19.0667 14.2435 19.5978 9.66227 17.1867 6.49682C16.841 6.03844 16.4425 5.62519 16 5.26619C18.129 3.54332 21.0246 3.22414 23.4586 4.44406C25.8926 5.66398 27.4383 8.20915 27.44 10.9999Z" fill="#F69E1E"/>
</svg>
