<svg width="32" height="22" viewBox="0 0 32 22" fill="none" xmlns="http://www.w3.org/2000/svg">
<rect width="32" height="22" rx="4" fill="#1A1F71"/>
<path fill-rule="evenodd" clip-rule="evenodd" d="M20.2332 12.1482C20.2373 11.0999 19.3989 10.6472 18.7484 10.2958C18.3365 10.0734 17.9999 9.89159 17.9999 9.62508C17.9999 9.3982 18.2132 9.15758 18.6665 9.0957C19.2061 9.04065 19.75 9.1381 20.2399 9.37758L20.5199 8.00258C20.0423 7.81789 19.5366 7.72244 19.0265 7.7207C17.4532 7.7207 16.3599 8.58695 16.3599 9.82445C16.3599 10.7388 17.1532 11.2476 17.7532 11.5501C18.3532 11.8526 18.5865 12.0657 18.5799 12.3407C18.5799 12.767 18.0865 12.9595 17.6265 12.9663C17.0591 12.9739 16.4992 12.8319 15.9999 12.5538L15.7132 13.9288C16.2782 14.1563 16.8801 14.2706 17.4865 14.2657C19.1599 14.2657 20.2599 13.4132 20.2665 12.0932L20.2332 12.1482ZM15.9067 7.83072L14.5734 14.1901H12.9734L14.3067 7.83072H15.9067ZM22.6133 11.9556L23.4533 9.56994L23.9399 11.9556H22.6133ZM25.8734 14.2106H24.3934L24.2001 13.2619H22.1934L21.8668 14.2106H20.1868L22.5801 8.31874C22.6904 8.03841 22.9534 7.854 23.2468 7.85124H24.5801L25.8734 14.2106ZM11.0734 14.1695L13.66 7.81008H11.9267L10.2667 12.1345L9.60002 8.45633C9.54101 8.08257 9.22723 7.80854 8.86002 7.81008H6.14669L6.10669 7.9957C6.65091 8.10551 7.17953 8.28568 7.68002 8.53195C7.8932 8.63531 8.03765 8.84701 8.06002 9.08883L9.33336 14.1695H11.0734Z" fill="white"/>
</svg>
