<svg width="20" height="15" viewBox="0 0 20 15" fill="none" xmlns="http://www.w3.org/2000/svg">
<path d="M12 10C7.28001 10 2.50001 12 2.00001 14.59C1.979 14.7048 1.91852 14.8086 1.82903 14.8835C1.73955 14.9583 1.62669 14.9996 1.51001 15H1.41001C1.2905 14.9999 1.17574 14.9533 1.09001 14.87C1.02214 14.774 0.990278 14.6572 1.00001 14.54C1.1707 11.7213 2.39799 9.07059 4.43695 7.1169C6.47591 5.16321 9.17658 4.0502 12 4V1.42C11.999 1.35292 12.0118 1.28635 12.0376 1.22443C12.0634 1.16251 12.1017 1.10654 12.15 1.06L12.35 0.859996C12.3965 0.813132 12.4518 0.775935 12.5127 0.75055C12.5736 0.725166 12.639 0.712097 12.705 0.712097C12.771 0.712097 12.8364 0.725166 12.8973 0.75055C12.9582 0.775935 13.0135 0.813132 13.06 0.859996L18.85 6.65C18.8978 6.69489 18.936 6.7491 18.962 6.8093C18.9881 6.8695 19.0015 6.9344 19.0015 7C19.0015 7.06559 18.9881 7.13049 18.962 7.19069C18.936 7.25089 18.8978 7.30511 18.85 7.35L13.06 13.14C13.0135 13.1869 12.9582 13.2241 12.8973 13.2494C12.8364 13.2748 12.771 13.2879 12.705 13.2879C12.639 13.2879 12.5736 13.2748 12.5127 13.2494C12.4518 13.2241 12.3965 13.1869 12.35 13.14L12.15 12.94C12.1017 12.8935 12.0634 12.8375 12.0376 12.7756C12.0118 12.7136 11.999 12.6471 12 12.58V10Z" fill="#B0BCC8"/>
</svg>
