<svg width="20" height="20" viewBox="0 0 20 20" fill="none" xmlns="http://www.w3.org/2000/svg">
<path d="M16 0H4C2.93913 0 1.92172 0.421427 1.17157 1.17157C0.421427 1.92172 0 2.93913 0 4V19.5C0 19.6326 0.0526785 19.7598 0.146447 19.8536C0.240215 19.9473 0.367392 20 0.5 20C0.565397 19.9996 0.630057 19.9862 0.690167 19.9604C0.750277 19.9346 0.804623 19.8971 0.85 19.85L3.85 16.85C4.13434 16.5732 4.47078 16.3555 4.83983 16.2096C5.20889 16.0637 5.60322 15.9924 6 16H16C17.0609 16 18.0783 15.5786 18.8284 14.8284C19.5786 14.0783 20 13.0609 20 12V4C20 2.93913 19.5786 1.92172 18.8284 1.17157C18.0783 0.421427 17.0609 0 16 0ZM12 10.5C12 10.6326 11.9473 10.7598 11.8536 10.8536C11.7598 10.9473 11.6326 11 11.5 11H4.5C4.36739 11 4.24021 10.9473 4.14645 10.8536C4.05268 10.7598 4 10.6326 4 10.5V9.5C4 9.36739 4.05268 9.24021 4.14645 9.14645C4.24021 9.05268 4.36739 9 4.5 9H11.5C11.6326 9 11.7598 9.05268 11.8536 9.14645C11.9473 9.24021 12 9.36739 12 9.5V10.5ZM16 6.5C16 6.63261 15.9473 6.75979 15.8536 6.85355C15.7598 6.94732 15.6326 7 15.5 7H4.5C4.36739 7 4.24021 6.94732 4.14645 6.85355C4.05268 6.75979 4 6.63261 4 6.5V5.5C4 5.36739 4.05268 5.24021 4.14645 5.14645C4.24021 5.05268 4.36739 5 4.5 5H15.5C15.6326 5 15.7598 5.05268 15.8536 5.14645C15.9473 5.24021 16 5.36739 16 5.5V6.5Z" fill="#7D6AF4"/>
</svg>
